<svg xmlns="http://www.w3.org/2000/svg" viewBox="0 0 309.3 72.0" role="img" aria-label="INFITEX"><style>.brand-word path{fill:#12304F;}.bx-ink{fill:#12304F;}.bx-acc{fill:#AEB9A8;}.bx-dot{fill:#12304F;}.bx-ring circle{stroke:#12304F;stroke-width:1.6;opacity:.14;fill:none;}</style><g class="brand-word" transform="translate(0 72.00) scale(0.10465 -0.10465)"><g transform="translate(0.0 0)"><path d="M40 0V688H220V0Z"/></g><g transform="translate(260.0 0)"><path d="M327 0 216 310H211V0H40V688H213L309 421H315V688H486V0Z"/></g><g transform="translate(786.0 0)"><path d="M40 0V688H377V540H220V402H356V254H220V0Z"/></g><g transform="translate(1183.0 0)"><path d="M40 0V688H220V0Z"/></g><g transform="translate(1443.0 0)"><path d="M126 0V535H7V688H426V535H307V0Z"/></g><g transform="translate(1876.0 0)"><path d="M40 0V688H393V540H220V421H367V274H220V148H393V0Z"/></g></g><g class="brand-x"><g class="bx-ring" fill="none"><circle cx="273.11" cy="36.00" r="24.48"/><circle cx="273.11" cy="36.00" r="32.40"/></g><path class="bx-ink" d="M 242.15 0.00 L 253.67 0.00 L 304.07 72.00 L 292.55 72.00 Z"/><rect class="bx-acc" x="262.31" y="-4.32" width="21.60" height="80.64" rx="10.80" transform="rotate(40 273.11 36.00)"/><circle class="bx-dot" cx="273.11" cy="36.00" r="7.20"/></g></svg>